<svg width="225" height="35" viewBox="0 0 225 35" fill="none" xmlns="http://www.w3.org/2000/svg">
<path d="M152.696 19.25C151.956 18.5922 151 18.2288 150.01 18.2288C149.02 18.2288 148.064 18.5922 147.324 19.25M154.842 17.1055C153.532 15.8799 151.804 15.198 150.01 15.198C148.215 15.198 146.488 15.8799 145.177 17.1055M156.75 14.7331C154.895 13.0782 152.496 12.1636 150.01 12.1636C147.524 12.1636 145.125 13.0782 143.27 14.7331" stroke="white" stroke-width="2" stroke-linecap="square" stroke-linejoin="round"/>
<path d="M151.571 21.5L150 23.2227L148.441 21.5C148.628 21.2644 148.866 21.0741 149.136 20.9432C149.407 20.8124 149.704 20.7444 150.004 20.7444C150.305 20.7444 150.602 20.8124 150.873 20.9432C151.143 21.0741 151.381 21.2644 151.567 21.5H151.571Z" fill="white"/>
<path d="M187.594 23.1875H185.906C185.682 23.1875 185.468 23.0986 185.31 22.9404C185.151 22.7821 185.062 22.5675 185.062 22.3438V11.6562C185.062 11.4325 185.151 11.2179 185.31 11.0596C185.468 10.9014 185.682 10.8125 185.906 10.8125H187.594C187.818 10.8125 188.032 10.9014 188.19 11.0596C188.349 11.2179 188.438 11.4325 188.438 11.6562V22.3438C188.438 22.5675 188.349 22.7821 188.19 22.9404C188.032 23.0986 187.818 23.1875 187.594 23.1875ZM183.094 23.1875H181.406C181.182 23.1875 180.968 23.0986 180.81 22.9404C180.651 22.7821 180.562 22.5675 180.562 22.3438V14.4688C180.562 14.245 180.651 14.0304 180.81 13.8721C180.968 13.7139 181.182 13.625 181.406 13.625H183.094C183.318 13.625 183.532 13.7139 183.69 13.8721C183.849 14.0304 183.938 14.245 183.938 14.4688V22.3438C183.938 22.5675 183.849 22.7821 183.69 22.9404C183.532 23.0986 183.318 23.1875 183.094 23.1875ZM178.594 23.1875H176.906C176.682 23.1875 176.468 23.0986 176.31 22.9404C176.151 22.7821 176.062 22.5675 176.062 22.3438V16.7188C176.062 16.495 176.151 16.2804 176.31 16.1221C176.468 15.9639 176.682 15.875 176.906 15.875H178.594C178.818 15.875 179.032 15.9639 179.19 16.1221C179.349 16.2804 179.438 16.495 179.438 16.7188V22.3438C179.438 22.5675 179.349 22.7821 179.19 22.9404C179.032 23.0986 178.818 23.1875 178.594 23.1875ZM174.094 23.1875H172.406C172.182 23.1875 171.968 23.0986 171.81 22.9404C171.651 22.7821 171.562 22.5675 171.562 22.3438V18.9688C171.562 18.745 171.651 18.5304 171.81 18.3721C171.968 18.2139 172.182 18.125 172.406 18.125H174.094C174.318 18.125 174.532 18.2139 174.69 18.3721C174.849 18.5304 174.938 18.745 174.938 18.9688V22.3438C174.938 22.5675 174.849 22.7821 174.69 22.9404C174.532 23.0986 174.318 23.1875 174.094 23.1875Z" fill="white"/>
<path d="M219.108 11.75H204.642C203.459 11.75 202.5 12.7091 202.5 13.8922V20.1078C202.5 21.2909 203.459 22.25 204.642 22.25H219.108C220.291 22.25 221.25 21.2909 221.25 20.1078V13.8922C221.25 12.7091 220.291 11.75 219.108 11.75Z" stroke="white" stroke-miterlimit="10" stroke-linecap="square"/>
<path d="M212.062 14.3248H205.204C205.101 14.3248 205.017 14.4088 205.017 14.5123V19.4872C205.017 19.5907 205.101 19.6747 205.204 19.6747H212.062C212.166 19.6747 212.25 19.5907 212.25 19.4872V14.5123C212.25 14.4088 212.166 14.3248 212.062 14.3248Z" fill="white" stroke="white" stroke-miterlimit="10" stroke-linecap="square"/>
<path d="M223.5 15.2502V18.7499" stroke="white" stroke-miterlimit="10" stroke-linecap="round"/>
<rect width="120" height="35" rx="17.5" fill="#040404"/>
<circle cx="102.5" cy="17.5" r="6.5" fill="url(#paint0_radial_120_79)"/>
<circle cx="102.5" cy="17.5" r="4.5" fill="url(#paint1_radial_120_79)"/>
<ellipse cx="102.5" cy="15" rx="1.5" ry="1" fill="url(#paint2_radial_120_79)"/>
<circle cx="102.5" cy="19.5" r="1.5" fill="url(#paint3_radial_120_79)"/>
<defs>
<radialGradient id="paint0_radial_120_79" cx="0" cy="0" r="1" gradientUnits="userSpaceOnUse" gradientTransform="translate(102.5 17.5) rotate(90) scale(6.5 14.5364)">
<stop stop-color="#111524" stop-opacity="0"/>
<stop offset="1" stop-color="#111524"/>
</radialGradient>
<radialGradient id="paint1_radial_120_79" cx="0" cy="0" r="1" gradientUnits="userSpaceOnUse" gradientTransform="translate(102.5 17.5) rotate(90) scale(4.5)">
<stop stop-color="#03010D"/>
<stop offset="1" stop-color="#081447"/>
</radialGradient>
<radialGradient id="paint2_radial_120_79" cx="0" cy="0" r="1" gradientUnits="userSpaceOnUse" gradientTransform="translate(102.5 15) rotate(90) scale(1 1.5)">
<stop stop-color="#5163A7"/>
<stop offset="1" stop-color="#1C1962"/>
</radialGradient>
<radialGradient id="paint3_radial_120_79" cx="0" cy="0" r="1" gradientUnits="userSpaceOnUse" gradientTransform="translate(102.5 19.5) rotate(90) scale(1.5)">
<stop stop-color="#235965"/>
<stop offset="0.615507" stop-color="#0E3149"/>
<stop offset="1" stop-color="#001736"/>
</radialGradient>
</defs>
</svg>
