<svg width="512" height="512" viewBox="0 0 512 512" fill="none" xmlns="http://www.w3.org/2000/svg">
<path d="M400 304L448 352L400 400M400 112L448 160L400 208M64 352H149.19C162.359 352 175.325 348.749 186.936 342.535C198.547 336.321 208.444 327.337 215.75 316.38L256 256" stroke="white" stroke-width="32" stroke-linecap="round" stroke-linejoin="round"/>
<path d="M64 160H149.19C162.359 160 175.325 163.251 186.936 169.465C198.547 175.679 208.444 184.663 215.75 195.62L296.25 316.38C303.556 327.337 313.453 336.321 325.064 342.535C336.675 348.749 349.641 352 362.81 352H416M416 160H362.81C349.641 160 336.675 163.251 325.064 169.465C313.453 175.679 303.556 184.663 296.25 195.62L288 208" stroke="white" stroke-width="32" stroke-linecap="white" stroke-linejoin="round"/>
<circle cx="256" cy="443" r="24" fill="white"/>
</svg>
